<svg width="170" height="170" viewBox="0 0 170 170" fill="none" xmlns="http://www.w3.org/2000/svg">
<rect width="170" height="170" fill="#F5F5F5"/>
<rect width="170" height="170" fill="white"/>
<path d="M22.5938 88.7812L25.3125 89.1875C25.2604 90.1875 25.1719 91.0417 25.0469 91.75C24.9219 92.4479 24.7344 93.0729 24.4844 93.625C24.2448 94.1771 23.9479 94.625 23.5938 94.9688C23.2396 95.3021 22.7812 95.5781 22.2188 95.7969C21.6667 96.0156 21.0417 96.1667 20.3438 96.25C19.6562 96.3333 18.8229 96.375 17.8438 96.375C16.9062 96.375 16.0677 96.349 15.3281 96.2969C14.5885 96.2552 13.9115 96.1562 13.2969 96C12.6927 95.8333 12.1615 95.6771 11.7031 95.5312C11.2552 95.375 10.8542 95.1198 10.5 94.7656C10.1562 94.4115 9.86458 94.0938 9.625 93.8125C9.39583 93.5312 9.19792 93.1042 9.03125 92.5312C8.875 91.9479 8.75521 91.4375 8.67188 91C8.58854 90.5625 8.52083 89.9271 8.46875 89.0938C8.42708 88.2604 8.40104 87.5312 8.39062 86.9062C8.38021 86.2812 8.375 85.4167 8.375 84.3125C8.375 83.1458 8.38021 82.2083 8.39062 81.5C8.40104 80.7917 8.43229 80.0208 8.48438 79.1875C8.53646 78.3542 8.59896 77.7083 8.67188 77.25C8.75521 76.7917 8.88021 76.2917 9.04688 75.75C9.22396 75.1979 9.42188 74.7917 9.64062 74.5312C9.85938 74.2604 10.1458 73.9688 10.5 73.6562C10.8542 73.3438 11.2396 73.1302 11.6562 73.0156C12.0833 72.8906 12.599 72.7656 13.2031 72.6406C13.8073 72.5156 14.4531 72.4375 15.1406 72.4062C15.8385 72.375 16.6458 72.3594 17.5625 72.3594C18.5104 72.3594 19.3177 72.3958 19.9844 72.4688C20.651 72.5312 21.276 72.6615 21.8594 72.8594C22.4427 73.0469 22.9219 73.3021 23.2969 73.625C23.6719 73.9375 24 74.349 24.2812 74.8594C24.5729 75.3698 24.7969 75.974 24.9531 76.6719C25.1094 77.3594 25.224 78.1875 25.2969 79.1562L22.5625 79.6875C22.5104 79.1562 22.4635 78.7135 22.4219 78.3594C22.3802 78.0052 22.3177 77.6562 22.2344 77.3125C22.1615 76.9688 22.099 76.6927 22.0469 76.4844C22.0052 76.2656 21.9115 76.0573 21.7656 75.8594C21.6198 75.651 21.5 75.4948 21.4062 75.3906C21.3229 75.2865 21.1615 75.1875 20.9219 75.0938C20.6823 75 20.4792 74.9375 20.3125 74.9062C20.1562 74.8646 19.8906 74.8281 19.5156 74.7969C19.151 74.7656 18.8333 74.75 18.5625 74.75C18.2917 74.75 17.8958 74.75 17.375 74.75C16.6458 74.75 16.0469 74.7604 15.5781 74.7812C15.1198 74.7917 14.6562 74.8281 14.1875 74.8906C13.7292 74.9427 13.3646 75.026 13.0938 75.1406C12.8333 75.2448 12.5885 75.3906 12.3594 75.5781C12.1302 75.7552 11.9635 75.9792 11.8594 76.25C11.7656 76.5104 11.7083 76.8281 11.6875 77.2031C11.5938 79.9531 11.5469 82.7604 11.5469 85.625C11.5469 87.625 11.5938 89.5781 11.6875 91.4844C11.7396 92.0781 11.9062 92.5417 12.1875 92.875C12.4792 93.2083 13.0365 93.474 13.8594 93.6719C14.6927 93.8698 15.8698 93.9688 17.3906 93.9688C18.2031 93.9688 18.8854 93.9479 19.4375 93.9062C19.9896 93.8542 20.4531 93.7448 20.8281 93.5781C21.2031 93.401 21.4896 93.2448 21.6875 93.1094C21.8854 92.9635 22.0417 92.6875 22.1562 92.2812C22.2812 91.875 22.3594 91.5365 22.3906 91.2656C22.4323 90.9844 22.474 90.5104 22.5156 89.8438C22.526 89.6979 22.5312 89.5833 22.5312 89.5C22.5417 89.4167 22.5521 89.3073 22.5625 89.1719C22.5729 89.026 22.5833 88.8958 22.5938 88.7812ZM38.0938 96.375C37.1875 96.375 36.3802 96.3542 35.6719 96.3125C34.974 96.2708 34.3281 96.1667 33.7344 96C33.1406 95.8438 32.6302 95.6979 32.2031 95.5625C31.7865 95.4271 31.4062 95.1719 31.0625 94.7969C30.7292 94.4115 30.4531 94.0833 30.2344 93.8125C30.0156 93.5312 29.8281 93.0729 29.6719 92.4375C29.5156 91.7917 29.401 91.2448 29.3281 90.7969C29.2552 90.3385 29.1927 89.6354 29.1406 88.6875C29.099 87.7396 29.0729 86.9271 29.0625 86.25C29.0625 85.5729 29.0625 84.5938 29.0625 83.3125C29.0625 81.7708 29.1042 80.4896 29.1875 79.4688C29.2708 78.4479 29.4323 77.5 29.6719 76.625C29.9219 75.75 30.2448 75.0625 30.6406 74.5625C31.0469 74.0625 31.5938 73.6354 32.2812 73.2812C32.9792 72.9167 33.7865 72.6719 34.7031 72.5469C35.6302 72.4115 36.7604 72.3438 38.0938 72.3438C39.3542 72.3438 40.4323 72.4062 41.3281 72.5312C42.224 72.6562 43.0156 72.8802 43.7031 73.2031C44.401 73.5156 44.9583 73.9115 45.375 74.3906C45.8021 74.8594 46.151 75.4792 46.4219 76.25C46.6927 77.0208 46.875 77.8854 46.9688 78.8438C47.0729 79.7917 47.125 80.9479 47.125 82.3125C47.125 86.1667 47.0677 88.7031 46.9531 89.9219C46.7552 92.0052 46.276 93.4948 45.5156 94.3906C44.7135 95.349 43.349 95.9531 41.4219 96.2031C40.5052 96.3177 39.3958 96.375 38.0938 96.375ZM40.3281 74.8125C39.7344 74.7708 38.9896 74.75 38.0938 74.75C37.1979 74.75 36.4531 74.7708 35.8594 74.8125C35.2656 74.8542 34.7448 74.9427 34.2969 75.0781C33.8594 75.2135 33.5208 75.3646 33.2812 75.5312C33.0417 75.6979 32.8438 75.9583 32.6875 76.3125C32.5417 76.6562 32.4427 77.0104 32.3906 77.375C32.349 77.7396 32.3177 78.2344 32.2969 78.8594C32.2656 80.7865 32.25 82.724 32.25 84.6719C32.25 87.6094 32.3281 89.6198 32.4844 90.7031C32.7344 92.3281 33.2083 93.2656 33.9062 93.5156C34.4271 93.8177 35.8229 93.9688 38.0938 93.9688C40.3646 93.9688 41.7604 93.8177 42.2812 93.5156C42.4792 93.4427 42.6562 93.3229 42.8125 93.1562C42.9792 92.9896 43.1146 92.7656 43.2188 92.4844C43.3333 92.2031 43.4323 91.9219 43.5156 91.6406C43.599 91.349 43.6667 90.9792 43.7188 90.5312C43.7708 90.0833 43.8125 89.6823 43.8438 89.3281C43.875 88.9635 43.8958 88.5052 43.9062 87.9531C43.9167 87.3906 43.9219 86.9271 43.9219 86.5625C43.9323 86.1979 43.9375 85.7135 43.9375 85.1094C43.9375 83.0052 43.9219 80.9219 43.8906 78.8594C43.8698 78.2344 43.8333 77.7396 43.7812 77.375C43.7396 77.0104 43.6406 76.6562 43.4844 76.3125C43.3385 75.9583 43.1458 75.6979 42.9062 75.5312C42.6667 75.3646 42.3229 75.2135 41.875 75.0781C41.4375 74.9427 40.9219 74.8542 40.3281 74.8125ZM64.6406 75.125H55.0312V82.7188H63.2188V85.25H55.0312V96H51.8594V72.7188H64.3281L64.6406 75.125ZM80.9531 75.125H71.3438V82.7188H79.5312V85.25H71.3438V96H68.1719V72.7188H80.6406L80.9531 75.125ZM97.5938 96H84.4062V72.7188H97.4531L97.7656 75.125H87.5781V82.6094H96.2812V85.1406H87.5781V93.6094H97.9062L97.5938 96ZM115.031 96H101.844V72.7188H114.891L115.203 75.125H105.016V82.6094H113.719V85.1406H105.016V93.6094H115.344L115.031 96Z" fill="#333333"/>
<path d="M162.422 80.3125C162.422 81.2604 162.37 82.1042 162.266 82.8438C162.161 83.5833 162.021 84.2188 161.844 84.75C161.677 85.2708 161.443 85.7188 161.141 86.0938C160.849 86.4688 160.536 86.7708 160.203 87C159.88 87.2292 159.484 87.4115 159.016 87.5469C158.557 87.6719 158.099 87.7552 157.641 87.7969C157.193 87.8385 156.667 87.8594 156.062 87.8594H149.859V96H146.703V72.7188H155.141C156.109 72.7188 156.927 72.7604 157.594 72.8438C158.271 72.9167 158.896 73.0573 159.469 73.2656C160.042 73.474 160.5 73.7552 160.844 74.1094C161.188 74.4635 161.484 74.9271 161.734 75.5C161.984 76.0729 162.156 76.75 162.25 77.5312C162.354 78.3021 162.411 79.2292 162.422 80.3125ZM159.266 80.1406C159.255 79.3906 159.234 78.7812 159.203 78.3125C159.172 77.8438 159.109 77.401 159.016 76.9844C158.932 76.5677 158.818 76.25 158.672 76.0312C158.536 75.8125 158.344 75.625 158.094 75.4688C157.854 75.3021 157.568 75.1927 157.234 75.1406C156.911 75.0885 156.505 75.0625 156.016 75.0625H149.859V85.5H155.375C156.188 85.5 156.849 85.4323 157.359 85.2969C157.87 85.1615 158.266 84.9375 158.547 84.625C158.839 84.3021 159.031 83.9271 159.125 83.5C159.229 83.0729 159.281 82.5208 159.281 81.8438C159.281 81.6771 159.276 81.4062 159.266 81.0312C159.266 80.6562 159.266 80.3594 159.266 80.1406Z" fill="#333333"/>
<circle cx="131" cy="84" r="12" fill="#333333"/>
<rect x="119" y="72" width="24" height="13" rx="2" fill="#333333"/>
<line x1="120.5" y1="72" x2="120.5" y2="93" stroke="white"/>
<line x1="118.5" y1="72" x2="118.5" y2="91" stroke="white"/>
<line x1="122.5" y1="72" x2="122.5" y2="95" stroke="white"/>
<line x1="124.5" y1="72" x2="124.5" y2="96" stroke="white"/>
<line x1="126.5" y1="72" x2="126.5" y2="96" stroke="white"/>
<line x1="10" y1="102.5" x2="161" y2="102.5" stroke="#333333"/>
</svg>
